<svg xmlns="http://www.w3.org/2000/svg" xmlns:xlink="http://www.w3.org/1999/xlink" viewBox="0 0 200 192.8" enable-background="new 0 0 200 192.8"><style type="text/css">.st0{fill:#FFFFFF;} .st1{fill:#009B3E;} .st2{clip-path:url(#SVGID_2_);} .st3{fill:#174D24;} .st4{fill:#007F36;} .st5{fill:#FEFADE;} .st6{clip-path:url(#SVGID_4_);fill:#1A1A1A;}</style><path class="st0" d="M159.5 86.5c0 40.3-32.7 73-73 73s-73-32.7-73-73 32.7-73 73-73c19.7 0 37.6 7.9 50.8 20.6l9.6-9.6c-15.7-15.1-36.9-24.5-60.4-24.5-47.8 0-86.5 38.7-86.5 86.5s38.7 86.5 86.5 86.5v19.8l51.4-36.7c21.3-15.8 35.1-41 35.1-69.6 0-6.3-.7-12.4-2-18.3l-11.9 11.8c.2 2.1.4 4.3.4 6.5z"/><path class="st1" d="M163.3 16.3l-71 71-34.2-34.2c-1.9-1.9-5-1.9-7 0l-19.5 19.6c-1.9 1.9-1.9 5 0 7l57.2 57.2c1 1 2.2 1.4 3.5 1.4 1.3 0 2.6-.4 3.6-1.4l94-94-26.6-26.6z"/><defs><path id="SVGID_1_" d="M163.3 16.3l-71 71-34.2-34.2c-1.9-1.9-5-1.9-7 0l-19.5 19.6c-1.9 1.9-1.9 5 0 7l57.2 57.2c1 1 2.2 1.4 3.5 1.4 1.3 0 2.6-.4 3.6-1.4l94-94-26.6-26.6z"/></defs><clipPath id="SVGID_2_"><use xlink:href="#SVGID_1_" overflow="visible"/></clipPath><g class="st2"><path class="st3" d="M163.2 16.4l-71.1 71.1-37.8-37.6-8.8 8.8 39.8 39.6 6.9 6.9 4.1-4.2 75.7-75.7z"/><path class="st4" d="M172.1 25.3l-79.9 79.9-46.7-46.5-8.8 8.9 51 50.8 4.5 4.4 4.9-4.9 83.8-83.8z"/></g><path class="st5" d="M168.6 14.3l-3.8.9c-.6.3-1.1.8-1.5 1.3-.9 1.1-1.5 2.5-1.5 4.1 0 3.5 2.8 6.3 6.3 6.3 1.6 0 3-.6 4.1-1.5-1 1.1-1.6 2.6-1.6 4.2 0 3.5 2.8 6.3 6.3 6.3 1.6 0 3.1-.6 4.2-1.6-1 1.1-1.6 2.6-1.6 4.2 0 3.5 2.8 6.3 6.3 6.3 1.6 0 3.1-.6 4.2-1.6.6-.5 1.1-1.2 1.4-1.9l.6-2.5 8-31.3-31.4 6.8z"/><defs><path id="SVGID_3_" d="M168.6 14.3l-3.8.9c-.6.3-1.1.8-1.5 1.3-.9 1.1-1.5 2.5-1.5 4.1 0 3.5 2.8 6.3 6.3 6.3 1.6 0 3-.6 4.1-1.5-1 1.1-1.6 2.6-1.6 4.2 0 3.5 2.8 6.3 6.3 6.3 1.6 0 3.1-.6 4.2-1.6-1 1.1-1.6 2.6-1.6 4.2 0 3.5 2.8 6.3 6.3 6.3 1.6 0 3.1-.6 4.2-1.6.6-.5 1.1-1.2 1.4-1.9l.6-2.5 8-31.3-31.4 6.8z"/></defs><clipPath id="SVGID_4_"><use xlink:href="#SVGID_3_" overflow="visible"/></clipPath><circle class="st6" cx="209.3" cy="-3.1" r="33.5"/></svg>